<svg width="578" height="81" fill="none" xmlns="http://www.w3.org/2000/svg"><path d="M22.096 2.67h85.603c9.421 0 14.067 11.455 7.307 18.017-.411.4-.855.765-1.327 1.092l-1 .694a25.303 25.303 0 01-12.368 4.43l-12.414 1.013H66.21A46.695 46.695 0 0035.246 39.66l-5.117 4.533c-.71.63-1.361 1.324-1.944 2.074-8.368 10.781-25.643 4.864-25.643-8.784v-15.26c0-10.799 8.755-19.553 19.554-19.553zm76.31 75.63H12.803c-9.421 0-14.067-11.455-7.308-18.018.412-.4.856-.764 1.327-1.092l1-.694a25.303 25.303 0 0112.369-4.43l12.414-1.012h21.686A46.695 46.695 0 0085.255 41.31l5.117-4.533c.71-.63 1.361-1.325 1.944-2.075 8.368-10.781 25.642-4.863 25.642 8.784v15.26c0 10.8-8.754 19.554-19.553 19.554zm72.786-75.63h85.603c9.421 0 14.067 11.455 7.307 18.017-.412.4-.855.765-1.327 1.092l-1 .694a25.303 25.303 0 01-12.368 4.43l-12.414 1.013h-21.686a46.695 46.695 0 00-30.965 11.744l-5.117 4.533a15.295 15.295 0 00-1.944 2.074c-8.368 10.781-25.643 4.864-25.643-8.784v-15.26c0-10.799 8.755-19.553 19.554-19.553zm76.31 75.63h-85.604c-9.421 0-14.067-11.455-7.307-18.018.412-.4.855-.764 1.327-1.092l1-.694a25.307 25.307 0 0112.368-4.43l12.414-1.012h21.686a46.695 46.695 0 0030.965-11.744l5.117-4.533a15.295 15.295 0 001.944-2.075c8.368-10.781 25.643-4.863 25.643 8.784v15.26c0 10.8-8.754 19.554-19.553 19.554zm72.785-75.63h85.603c9.421 0 14.067 11.455 7.307 18.017-.411.4-.855.765-1.327 1.092l-1 .694a25.303 25.303 0 01-12.368 4.43l-12.414 1.013h-21.686a46.695 46.695 0 00-30.965 11.744l-5.117 4.533a15.358 15.358 0 00-1.944 2.074c-8.368 10.781-25.643 4.864-25.643-8.784v-15.26c0-10.799 8.755-19.553 19.554-19.553zm76.31 75.63h-85.603c-9.422 0-14.067-11.455-7.308-18.018.412-.4.856-.764 1.327-1.092l1.001-.694a25.3 25.3 0 0112.368-4.43l12.414-1.012h21.685a46.696 46.696 0 0030.966-11.744l5.117-4.533a15.35 15.35 0 001.943-2.075c8.369-10.781 25.643-4.863 25.643 8.784v15.26c0 10.8-8.754 19.554-19.553 19.554zm72.785-75.63h85.604c9.421 0 14.067 11.455 7.307 18.017-.412.4-.856.765-1.327 1.092l-1 .694a25.307 25.307 0 01-12.369 4.43l-12.414 1.013h-21.685a46.693 46.693 0 00-30.965 11.744l-5.117 4.533a15.295 15.295 0 00-1.944 2.074c-8.368 10.781-25.643 4.864-25.643-8.784v-15.26c0-10.799 8.754-19.553 19.553-19.553zm76.311 75.63h-85.604c-9.421 0-14.067-11.455-7.307-18.018.412-.4.855-.764 1.327-1.092l1-.694a25.303 25.303 0 0112.368-4.43l12.414-1.012h21.686a46.695 46.695 0 0030.965-11.744l5.117-4.533a15.295 15.295 0 001.944-2.075c8.368-10.781 25.643-4.863 25.643 8.784v15.26c0 10.8-8.754 19.554-19.553 19.554z" stroke="#fff"/></svg>