<svg width="578" height="81" viewBox="0 0 578 81" fill="none" xmlns="http://www.w3.org/2000/svg">
<path d="M22.0958 2.66968H107.699C117.12 2.66968 121.766 14.1247 115.006 20.687C114.595 21.0867 114.151 21.452 113.679 21.7791L112.679 22.4731C109.018 25.0131 104.752 26.5414 100.311 26.9035L87.8969 27.9158H66.2114C57.636 27.9158 49.2262 30.2772 41.9042 34.7412C39.5436 36.1803 37.3155 37.8262 35.2462 39.6596L30.1293 44.1929C29.4185 44.8226 28.7677 45.5171 28.1854 46.2673C19.8173 57.0485 2.54248 51.131 2.54248 37.4833V22.223C2.54248 11.424 11.2968 2.66968 22.0958 2.66968Z" stroke="white"/>
<path d="M98.4061 78.2998H12.8026C3.38153 78.2998 -1.26421 66.8447 5.49548 60.2824C5.9072 59.8827 6.35102 59.5175 6.82247 59.1904L7.82276 58.4964C11.4835 55.9564 15.7501 54.4281 20.191 54.066L32.605 53.0537H54.2905C62.866 53.0537 71.2758 50.6923 78.5978 46.2283C80.9583 44.7892 83.1864 43.1432 85.2558 41.3099L90.3727 36.7766C91.0835 36.1469 91.7342 35.4524 92.3165 34.7022C100.685 23.921 117.959 29.8385 117.959 43.4862V58.7465C117.959 69.5455 109.205 78.2998 98.4061 78.2998Z" stroke="white"/>
<path d="M171.192 2.66968H256.795C266.216 2.66968 270.862 14.1247 264.102 20.687C263.69 21.0867 263.247 21.452 262.775 21.7791L261.775 22.4731C258.114 25.0131 253.848 26.5414 249.407 26.9035L236.993 27.9158H215.307C206.732 27.9158 198.322 30.2772 191 34.7412C188.639 36.1803 186.411 37.8262 184.342 39.6596L179.225 44.1929C178.514 44.8226 177.863 45.5171 177.281 46.2673C168.913 57.0485 151.638 51.131 151.638 37.4833V22.223C151.638 11.424 160.393 2.66968 171.192 2.66968Z" stroke="white"/>
<path d="M247.502 78.2998H161.898C152.477 78.2998 147.831 66.8447 154.591 60.2824C155.003 59.8827 155.446 59.5175 155.918 59.1904L156.918 58.4964C160.579 55.9564 164.846 54.4281 169.286 54.066L181.7 53.0537H203.386C211.961 53.0537 220.371 50.6923 227.693 46.2283C230.054 44.7892 232.282 43.1432 234.351 41.3099L239.468 36.7766C240.179 36.1469 240.83 35.4524 241.412 34.7022C249.78 23.921 267.055 29.8385 267.055 43.4862V58.7465C267.055 69.5455 258.301 78.2998 247.502 78.2998Z" stroke="white"/>
<path d="M320.287 2.66968H405.89C415.311 2.66968 419.957 14.1247 413.197 20.687C412.786 21.0867 412.342 21.452 411.87 21.7791L410.87 22.4731C407.209 25.0131 402.943 26.5414 398.502 26.9035L386.088 27.9158H364.402C355.827 27.9158 347.417 30.2772 340.095 34.7412C337.735 36.1803 335.506 37.8262 333.437 39.6596L328.32 44.1929C327.609 44.8226 326.959 45.5171 326.376 46.2673C318.008 57.0485 300.733 51.131 300.733 37.4833V22.223C300.733 11.424 309.488 2.66968 320.287 2.66968Z" stroke="white"/>
<path d="M396.597 78.2998H310.994C301.572 78.2998 296.927 66.8447 303.686 60.2824C304.098 59.8827 304.542 59.5175 305.013 59.1904L306.014 58.4964C309.674 55.9564 313.941 54.4281 318.382 54.066L330.796 53.0537H352.481C361.057 53.0537 369.467 50.6923 376.789 46.2283C379.149 44.7892 381.377 43.1432 383.447 41.3099L388.564 36.7766C389.274 36.1469 389.925 35.4524 390.507 34.7022C398.876 23.921 416.15 29.8385 416.15 43.4862V58.7465C416.15 69.5455 407.396 78.2998 396.597 78.2998Z" stroke="white"/>
<path d="M469.382 2.66968H554.986C564.407 2.66968 569.053 14.1247 562.293 20.687C561.881 21.0867 561.437 21.452 560.966 21.7791L559.966 22.4731C556.305 25.0131 552.038 26.5414 547.597 26.9035L535.183 27.9158H513.498C504.922 27.9158 496.513 30.2772 489.191 34.7412C486.83 36.1803 484.602 37.8262 482.533 39.6596L477.416 44.1929C476.705 44.8226 476.054 45.5171 475.472 46.2673C467.104 57.0485 449.829 51.131 449.829 37.4833V22.223C449.829 11.424 458.583 2.66968 469.382 2.66968Z" stroke="white"/>
<path d="M545.693 78.2998H460.089C450.668 78.2998 446.022 66.8447 452.782 60.2824C453.194 59.8827 453.637 59.5175 454.109 59.1904L455.109 58.4964C458.77 55.9564 463.036 54.4281 467.477 54.066L479.891 53.0537H501.577C510.152 53.0537 518.562 50.6923 525.884 46.2283C528.245 44.7892 530.473 43.1432 532.542 41.3099L537.659 36.7766C538.37 36.1469 539.021 35.4524 539.603 34.7022C547.971 23.921 565.246 29.8385 565.246 43.4862V58.7465C565.246 69.5455 556.492 78.2998 545.693 78.2998Z" stroke="white"/>
</svg>
