<svg width="18" height="20" viewBox="0 0 18 20" fill="none" xmlns="http://www.w3.org/2000/svg">
<path d="M17.8333 10.0121C17.8333 10.644 17.6345 11.2782 17.2367 11.7861C17.1622 11.8858 16.8142 12.2965 16.5407 12.5638L16.3916 12.7096C14.3035 14.9234 9.10819 18.2527 6.47327 19.3196C6.47327 19.3439 4.90722 19.9781 4.16147 20H4.06204C2.91857 20 1.84968 19.3706 1.3028 18.35C1.00451 17.7886 0.731071 16.1604 0.706214 16.1385C0.482491 14.678 0.333344 12.4423 0.333344 9.98785C0.333344 7.41435 0.482491 5.07898 0.755929 3.6452C0.755929 3.6209 1.02937 2.30863 1.20337 1.8712C1.47681 1.2418 1.97397 0.70474 2.59542 0.36452C3.09257 0.123937 3.61459 0 4.16147 0C4.73319 0.0267315 5.80209 0.388822 6.22467 0.55893C9.00877 1.62819 14.3284 5.12757 16.3667 7.2661C16.7147 7.60633 17.0876 8.02188 17.187 8.11665C17.6096 8.65127 17.8333 9.3074 17.8333 10.0121Z" fill="white"/>
</svg>
