<svg width="19" height="15" viewBox="0 0 19 15" fill="none" xmlns="http://www.w3.org/2000/svg">
<path d="M12.4732 14.109L17.4782 9.09234C17.9128 8.65516 18.1567 8.06377 18.1567 7.44734C18.1567 6.8309 17.9128 6.23952 17.4782 5.80234L12.4732 0.785669C12.2546 0.568376 11.9589 0.446411 11.6507 0.446411C11.3425 0.446411 11.0468 0.568376 10.8282 0.785669C10.7189 0.894126 10.6321 1.02316 10.5728 1.16533C10.5136 1.3075 10.4831 1.45999 10.4831 1.614C10.4831 1.76802 10.5136 1.92051 10.5728 2.06268C10.6321 2.20484 10.7189 2.33388 10.8282 2.44234L14.6666 6.28067L1.83322 6.28067C1.5238 6.28067 1.22706 6.40359 1.00826 6.62238C0.789472 6.84117 0.666556 7.13792 0.666556 7.44734C0.666556 7.75676 0.789472 8.0535 1.00826 8.27229C1.22706 8.49109 1.5238 8.614 1.83322 8.614L14.6666 8.614L10.8282 12.4523C10.6085 12.6705 10.4845 12.967 10.4834 13.2765C10.4823 13.5861 10.6042 13.8835 10.8224 14.1032C11.0405 14.3229 11.337 14.4469 11.6466 14.448C11.9562 14.4491 12.2535 14.3271 12.4732 14.109V14.109Z" fill="#98C7FF"/>
</svg>
