<svg width="190" height="19" viewBox="0 0 190 19" fill="none" xmlns="http://www.w3.org/2000/svg">
<path d="M6.912 18L0.384 1.056H4.416L9.384 14.76H7.728L12.768 1.056H16.752L10.152 18H6.912ZM18.7414 18V1.056H22.5094V18H18.7414ZM21.6214 18V14.736H30.9094V18H21.6214ZM21.6214 10.92V7.776H30.0694V10.92H21.6214ZM21.6214 4.296V1.056H30.7894V4.296H21.6214ZM36.387 11.016V8.232H39.963C40.715 8.232 41.291 8.04 41.691 7.656C42.107 7.272 42.315 6.752 42.315 6.096C42.315 5.488 42.115 4.984 41.715 4.584C41.315 4.184 40.739 3.984 39.987 3.984H36.387V1.056H40.419C41.539 1.056 42.523 1.272 43.371 1.704C44.219 2.12 44.883 2.704 45.363 3.456C45.843 4.208 46.083 5.072 46.083 6.048C46.083 7.04 45.843 7.912 45.363 8.664C44.883 9.4 44.211 9.976 43.347 10.392C42.483 10.808 41.467 11.016 40.299 11.016H36.387ZM33.507 18V1.056H37.275V18H33.507ZM42.723 18L37.443 10.704L40.899 9.768L47.187 18H42.723ZM52.4246 18V1.296H56.1926V18H52.4246ZM47.1206 4.344V1.056H61.4966V4.344H47.1206ZM63.6008 18V1.056H67.3688V18H63.6008ZM78.624 18.264C77.392 18.264 76.232 18.04 75.144 17.592C74.072 17.144 73.136 16.528 72.336 15.744C71.536 14.944 70.904 14.016 70.44 12.96C69.992 11.888 69.768 10.736 69.768 9.504C69.768 8.272 70 7.128 70.464 6.072C70.928 5.016 71.568 4.096 72.384 3.312C73.216 2.512 74.184 1.896 75.288 1.464C76.392 1.016 77.576 0.792 78.84 0.792C80.296 0.792 81.616 1.056 82.8 1.584C84 2.112 84.992 2.84 85.776 3.768L83.208 6.336C82.664 5.632 82.024 5.104 81.288 4.752C80.552 4.4 79.72 4.224 78.792 4.224C77.8 4.224 76.912 4.448 76.128 4.896C75.344 5.328 74.728 5.944 74.28 6.744C73.848 7.528 73.632 8.448 73.632 9.504C73.632 10.56 73.848 11.488 74.28 12.288C74.712 13.088 75.304 13.712 76.056 14.16C76.808 14.608 77.672 14.832 78.648 14.832C79.64 14.832 80.48 14.648 81.168 14.28C81.872 13.896 82.408 13.352 82.776 12.648C83.16 11.928 83.352 11.056 83.352 10.032L85.848 11.712L78.288 11.592V8.4H87.192V8.952C87.192 10.984 86.824 12.696 86.088 14.088C85.368 15.464 84.36 16.504 83.064 17.208C81.784 17.912 80.304 18.264 78.624 18.264ZM97.7981 18.288C96.5181 18.288 95.3341 18.064 94.2461 17.616C93.1741 17.168 92.2301 16.544 91.4141 15.744C90.5981 14.944 89.9661 14.016 89.5181 12.96C89.0701 11.888 88.8461 10.736 88.8461 9.504C88.8461 8.256 89.0701 7.104 89.5181 6.048C89.9661 4.992 90.5901 4.072 91.3901 3.288C92.1901 2.488 93.1261 1.872 94.1981 1.44C95.2861 0.991999 96.4701 0.767999 97.7501 0.767999C99.0141 0.767999 100.182 0.991999 101.254 1.44C102.342 1.872 103.286 2.488 104.086 3.288C104.902 4.072 105.534 5 105.982 6.072C106.43 7.128 106.654 8.28 106.654 9.528C106.654 10.76 106.43 11.912 105.982 12.984C105.534 14.04 104.91 14.968 104.11 15.768C103.31 16.552 102.366 17.168 101.278 17.616C100.206 18.064 99.0461 18.288 97.7981 18.288ZM97.7501 14.856C98.7581 14.856 99.6381 14.632 100.39 14.184C101.158 13.736 101.75 13.112 102.166 12.312C102.582 11.496 102.79 10.56 102.79 9.504C102.79 8.704 102.67 7.984 102.43 7.344C102.19 6.688 101.846 6.128 101.398 5.664C100.95 5.184 100.414 4.824 99.7901 4.584C99.1821 4.328 98.5021 4.2 97.7501 4.2C96.7421 4.2 95.8541 4.424 95.0861 4.872C94.3341 5.304 93.7501 5.92 93.3341 6.72C92.9181 7.504 92.7101 8.432 92.7101 9.504C92.7101 10.304 92.8301 11.032 93.0701 11.688C93.3101 12.344 93.6461 12.912 94.0781 13.392C94.5261 13.856 95.0621 14.216 95.6861 14.472C96.3101 14.728 96.9981 14.856 97.7501 14.856ZM111.926 18V15.072H115.91C116.646 15.072 117.222 14.856 117.638 14.424C118.054 13.992 118.262 13.464 118.262 12.84C118.262 12.408 118.166 12.024 117.974 11.688C117.782 11.352 117.51 11.088 117.158 10.896C116.822 10.704 116.406 10.608 115.91 10.608H111.926V7.752H115.598C116.222 7.752 116.726 7.6 117.11 7.296C117.494 6.976 117.686 6.496 117.686 5.856C117.686 5.232 117.494 4.768 117.11 4.464C116.726 4.144 116.222 3.984 115.598 3.984H111.926V1.056H116.318C117.406 1.056 118.326 1.256 119.078 1.656C119.846 2.056 120.43 2.592 120.83 3.264C121.23 3.936 121.43 4.68 121.43 5.496C121.43 6.536 121.094 7.416 120.422 8.136C119.75 8.856 118.758 9.352 117.446 9.624L117.542 8.352C118.966 8.624 120.062 9.176 120.83 10.008C121.614 10.84 122.006 11.864 122.006 13.08C122.006 14.008 121.774 14.848 121.31 15.6C120.862 16.336 120.206 16.92 119.342 17.352C118.494 17.784 117.47 18 116.27 18H111.926ZM109.046 18V1.056H112.766V18H109.046ZM132.509 18.288C131.229 18.288 130.045 18.064 128.957 17.616C127.885 17.168 126.941 16.544 126.125 15.744C125.309 14.944 124.677 14.016 124.229 12.96C123.781 11.888 123.557 10.736 123.557 9.504C123.557 8.256 123.781 7.104 124.229 6.048C124.677 4.992 125.301 4.072 126.101 3.288C126.901 2.488 127.837 1.872 128.909 1.44C129.997 0.991999 131.181 0.767999 132.461 0.767999C133.725 0.767999 134.893 0.991999 135.965 1.44C137.053 1.872 137.997 2.488 138.797 3.288C139.613 4.072 140.245 5 140.693 6.072C141.141 7.128 141.365 8.28 141.365 9.528C141.365 10.76 141.141 11.912 140.693 12.984C140.245 14.04 139.621 14.968 138.821 15.768C138.021 16.552 137.077 17.168 135.989 17.616C134.917 18.064 133.757 18.288 132.509 18.288ZM132.461 14.856C133.469 14.856 134.349 14.632 135.101 14.184C135.869 13.736 136.461 13.112 136.877 12.312C137.293 11.496 137.501 10.56 137.501 9.504C137.501 8.704 137.381 7.984 137.141 7.344C136.901 6.688 136.557 6.128 136.109 5.664C135.661 5.184 135.125 4.824 134.501 4.584C133.893 4.328 133.213 4.2 132.461 4.2C131.453 4.2 130.565 4.424 129.797 4.872C129.045 5.304 128.461 5.92 128.045 6.72C127.629 7.504 127.421 8.432 127.421 9.504C127.421 10.304 127.541 11.032 127.781 11.688C128.021 12.344 128.357 12.912 128.789 13.392C129.237 13.856 129.773 14.216 130.397 14.472C131.021 14.728 131.709 14.856 132.461 14.856ZM152.079 18.288C150.799 18.288 149.615 18.064 148.527 17.616C147.455 17.168 146.511 16.544 145.695 15.744C144.879 14.944 144.247 14.016 143.799 12.96C143.351 11.888 143.127 10.736 143.127 9.504C143.127 8.256 143.351 7.104 143.799 6.048C144.247 4.992 144.871 4.072 145.671 3.288C146.471 2.488 147.407 1.872 148.479 1.44C149.567 0.991999 150.751 0.767999 152.031 0.767999C153.295 0.767999 154.463 0.991999 155.535 1.44C156.623 1.872 157.567 2.488 158.367 3.288C159.183 4.072 159.815 5 160.263 6.072C160.711 7.128 160.935 8.28 160.935 9.528C160.935 10.76 160.711 11.912 160.263 12.984C159.815 14.04 159.191 14.968 158.391 15.768C157.591 16.552 156.647 17.168 155.559 17.616C154.487 18.064 153.327 18.288 152.079 18.288ZM152.031 14.856C153.039 14.856 153.919 14.632 154.671 14.184C155.439 13.736 156.031 13.112 156.447 12.312C156.863 11.496 157.071 10.56 157.071 9.504C157.071 8.704 156.951 7.984 156.711 7.344C156.471 6.688 156.127 6.128 155.679 5.664C155.231 5.184 154.695 4.824 154.071 4.584C153.463 4.328 152.783 4.2 152.031 4.2C151.023 4.2 150.135 4.424 149.367 4.872C148.615 5.304 148.031 5.92 147.615 6.72C147.199 7.504 146.991 8.432 146.991 9.504C146.991 10.304 147.111 11.032 147.351 11.688C147.591 12.344 147.927 12.912 148.359 13.392C148.807 13.856 149.343 14.216 149.967 14.472C150.591 14.728 151.279 14.856 152.031 14.856ZM168.017 18.264C166.625 18.264 165.425 18.04 164.417 17.592C163.425 17.128 162.513 16.432 161.681 15.504L164.129 13.08C164.673 13.704 165.273 14.192 165.929 14.544C166.601 14.88 167.377 15.048 168.257 15.048C169.057 15.048 169.673 14.904 170.105 14.616C170.553 14.328 170.777 13.928 170.777 13.416C170.777 12.952 170.633 12.576 170.345 12.288C170.057 12 169.673 11.752 169.193 11.544C168.729 11.336 168.209 11.136 167.633 10.944C167.073 10.752 166.513 10.536 165.953 10.296C165.393 10.04 164.873 9.728 164.393 9.36C163.929 8.976 163.553 8.504 163.265 7.944C162.977 7.368 162.833 6.648 162.833 5.784C162.833 4.744 163.081 3.848 163.577 3.096C164.089 2.344 164.793 1.776 165.689 1.392C166.585 0.992 167.617 0.792 168.785 0.792C169.969 0.792 171.049 1 172.025 1.416C173.017 1.832 173.833 2.4 174.473 3.12L172.025 5.544C171.513 5.016 170.993 4.624 170.465 4.368C169.953 4.112 169.369 3.984 168.713 3.984C168.057 3.984 167.537 4.112 167.153 4.368C166.769 4.608 166.577 4.96 166.577 5.424C166.577 5.856 166.721 6.208 167.009 6.48C167.297 6.736 167.673 6.96 168.137 7.152C168.617 7.344 169.137 7.536 169.697 7.728C170.273 7.92 170.841 8.144 171.401 8.4C171.961 8.656 172.473 8.984 172.937 9.384C173.417 9.768 173.801 10.264 174.089 10.872C174.377 11.464 174.521 12.2 174.521 13.08C174.521 14.696 173.945 15.968 172.793 16.896C171.641 17.808 170.049 18.264 168.017 18.264ZM180.44 18V1.296H184.208V18H180.44ZM175.136 4.344V1.056H189.512V4.344H175.136Z" fill="white"/>
</svg>
