<svg width="18" height="22" viewBox="0 0 18 22" fill="none" xmlns="http://www.w3.org/2000/svg">
<path d="M17 16.666L17.4 17.199C17.4557 17.2733 17.4896 17.3616 17.498 17.4541C17.5063 17.5466 17.4887 17.6396 17.4472 17.7226C17.4057 17.8057 17.3419 17.8755 17.2629 17.9243C17.1839 17.9732 17.0929 17.999 17 17.999H1C0.907144 17.999 0.816123 17.9732 0.737135 17.9243C0.658147 17.8755 0.594313 17.8057 0.552787 17.7226C0.51126 17.6396 0.493682 17.5466 0.502021 17.4541C0.51036 17.3616 0.544287 17.2733 0.6 17.199L1 16.666V7.99902C1 5.87729 1.84286 3.84246 3.34315 2.34217C4.84344 0.841878 6.87827 -0.000976562 9 -0.000976562C11.1217 -0.000976562 13.1566 0.841878 14.6569 2.34217C16.1571 3.84246 17 5.87729 17 7.99902V16.666ZM6.5 18.999H11.5C11.5 19.6621 11.2366 20.2979 10.7678 20.7668C10.2989 21.2356 9.66304 21.499 9 21.499C8.33696 21.499 7.70107 21.2356 7.23223 20.7668C6.76339 20.2979 6.5 19.6621 6.5 18.999Z" fill="#FF7132"/>
</svg>
